<svg width="14" height="15" viewBox="0 0 14 15" fill="none" xmlns="http://www.w3.org/2000/svg">
<path d="M13.3334 14.6667H0.666748V13.3334C0.666748 12.4494 1.01794 11.6015 1.64306 10.9764C2.26818 10.3513 3.11603 10.0001 4.00008 10.0001H10.0001C10.8841 10.0001 11.732 10.3513 12.3571 10.9764C12.9822 11.6015 13.3334 12.4494 13.3334 13.3334V14.6667ZM7.00008 8.66675C6.47479 8.66675 5.95465 8.56328 5.46935 8.36227C4.98405 8.16125 4.54309 7.86661 4.17165 7.49518C3.80022 7.12374 3.50558 6.68278 3.30456 6.19748C3.10354 5.71218 3.00008 5.19204 3.00008 4.66675C3.00008 4.14146 3.10354 3.62132 3.30456 3.13601C3.50558 2.65071 3.80022 2.20976 4.17165 1.83832C4.54309 1.46689 4.98405 1.17225 5.46935 0.97123C5.95465 0.770211 6.47479 0.666748 7.00008 0.666748C8.06095 0.666748 9.07836 1.08818 9.82851 1.83832C10.5787 2.58847 11.0001 3.60588 11.0001 4.66675C11.0001 5.72761 10.5787 6.74503 9.82851 7.49518C9.07836 8.24532 8.06095 8.66675 7.00008 8.66675Z"/>
</svg>
