<svg width="24" height="24" viewBox="0 0 24 24" fill="none" xmlns="http://www.w3.org/2000/svg">
<g clip-path="url(#clip0_504_1807)">
<path d="M16.5 6.6H21V8.4H19.2V20.1C19.2 20.3387 19.1052 20.5676 18.9364 20.7364C18.7676 20.9052 18.5387 21 18.3 21H5.7C5.46131 21 5.23239 20.9052 5.0636 20.7364C4.89482 20.5676 4.8 20.3387 4.8 20.1V8.4H3V6.6H7.5V3.9C7.5 3.66131 7.59482 3.43239 7.7636 3.2636C7.93239 3.09482 8.1613 3 8.4 3H15.6C15.8387 3 16.0676 3.09482 16.2364 3.2636C16.4052 3.43239 16.5 3.66131 16.5 3.9V6.6ZM9.3 11.1V16.5H11.1V11.1H9.3ZM12.9 11.1V16.5H14.7V11.1H12.9ZM9.3 4.8V6.6H14.7V4.8H9.3Z" fill="#3A393D"/>
</g>
<defs>
<clipPath id="clip0_504_1807">
<rect width="24" height="24" fill="white"/>
</clipPath>
</defs>
</svg>
