<svg width="12" height="14" viewBox="0 0 12 14" fill="none" xmlns="http://www.w3.org/2000/svg">
<path d="M10.6667 5.6H11.3333C11.5101 5.6 11.6797 5.67375 11.8047 5.80503C11.9298 5.9363 12 6.11435 12 6.3V13.3C12 13.4857 11.9298 13.6637 11.8047 13.795C11.6797 13.9263 11.5101 14 11.3333 14H0.666667C0.489856 14 0.320286 13.9263 0.195262 13.795C0.0702379 13.6637 0 13.4857 0 13.3V6.3C0 6.11435 0.0702379 5.9363 0.195262 5.80503C0.320286 5.67375 0.489856 5.6 0.666667 5.6H1.33333V4.9C1.33333 4.25652 1.45404 3.61935 1.68856 3.02485C1.92308 2.43036 2.26683 1.89018 2.70017 1.43518C3.13351 0.98017 3.64796 0.619238 4.21414 0.37299C4.78033 0.126742 5.38716 0 6 0C6.61284 0 7.21967 0.126742 7.78586 0.37299C8.35204 0.619238 8.86649 0.98017 9.29983 1.43518C9.73317 1.89018 10.0769 2.43036 10.3114 3.02485C10.546 3.61935 10.6667 4.25652 10.6667 4.9V5.6ZM9.33333 5.6V4.9C9.33333 3.97174 8.98214 3.0815 8.35702 2.42513C7.7319 1.76875 6.88406 1.4 6 1.4C5.11595 1.4 4.2681 1.76875 3.64298 2.42513C3.01786 3.0815 2.66667 3.97174 2.66667 4.9V5.6H9.33333ZM5.33333 8.4V11.2H6.66667V8.4H5.33333Z"/>
</svg>
